<svg xmlns="http://www.w3.org/2000/svg" fill="none" viewBox="0 0 210 24" height="24" width="210">
<g clip-path="url(#clip0_2021_48639)">
<path fill="#213478" d="M209.081 22.7195C208.84 23.0871 208.413 23.2688 207.686 23.2688C207.167 23.2688 206.833 23.18 206.622 22.9899C206.423 22.8209 206.355 22.5631 206.355 22.2124C206.355 21.811 206.44 21.2998 206.651 20.9617C206.892 20.5941 207.315 20.4082 208.041 20.4082C208.561 20.4082 208.899 20.4969 209.11 20.6829C209.305 20.8603 209.385 21.1138 209.385 21.473C209.385 21.8786 209.296 22.3899 209.085 22.7237L209.081 22.7195ZM208.903 20.9237C208.751 20.7589 208.472 20.6829 208.003 20.6829C207.534 20.6829 207.239 20.7674 207.036 20.9279C206.892 21.0631 206.803 21.2448 206.74 21.4857C206.681 21.7181 206.655 21.9631 206.655 22.1913C206.655 22.4364 206.702 22.6223 206.816 22.7575C206.968 22.9223 207.247 22.9983 207.716 22.9983C208.185 22.9983 208.489 22.9096 208.679 22.7448C208.823 22.6138 208.92 22.4321 208.984 22.1913C209.034 21.9674 209.064 21.7181 209.064 21.4857C209.064 21.2364 209.026 21.0589 208.899 20.9237H208.903ZM208.515 21.6927C208.46 21.7814 208.354 21.8364 208.198 21.8533V21.9167C208.265 21.9167 208.35 21.9378 208.401 21.98C208.464 22.0223 208.506 22.0941 208.506 22.2251V22.2843L208.489 22.5843L208.451 22.6307H208.202L208.164 22.6012L208.181 22.3054C208.181 22.2674 208.181 22.2378 208.181 22.2167C208.181 22.149 208.155 22.1026 208.122 22.0772C208.067 22.035 207.978 22.0138 207.868 22.0138L207.547 21.9969L207.475 22.58L207.412 22.6307H207.196L207.146 22.5843L207.336 21.08L207.399 21.0251H208.109C208.282 21.0251 208.417 21.0589 208.506 21.1434C208.565 21.1983 208.599 21.2998 208.599 21.4096C208.599 21.5026 208.578 21.6124 208.519 21.6927H208.515ZM208.198 21.3251C208.155 21.2955 208.075 21.2744 207.978 21.2744H207.632L207.564 21.7814L207.915 21.773C208.075 21.7645 208.172 21.7434 208.219 21.6589C208.244 21.6124 208.257 21.5279 208.257 21.473C208.257 21.4012 208.236 21.3505 208.194 21.3293L208.198 21.3251Z"></path>
<path fill="#213478" d="M209.081 22.7195C208.84 23.0871 208.422 23.2688 207.686 23.2688C207.167 23.2688 206.833 23.18 206.622 22.9899C206.423 22.8209 206.355 22.5631 206.355 22.2124C206.355 21.811 206.44 21.2998 206.651 20.9617C206.892 20.5941 207.315 20.4082 208.041 20.4082C208.561 20.4082 208.899 20.4969 209.11 20.6829C209.305 20.8603 209.385 21.1138 209.385 21.473C209.385 21.8786 209.296 22.3941 209.085 22.7237L209.081 22.7195ZM208.903 20.9237C208.751 20.7589 208.472 20.6829 208.012 20.6829C207.551 20.6829 207.243 20.7674 207.04 20.9279C206.896 21.0631 206.808 21.2448 206.744 21.4857C206.685 21.7181 206.66 21.9631 206.66 22.1913C206.66 22.4364 206.706 22.6223 206.82 22.7575C206.972 22.9223 207.251 22.9941 207.72 22.9941C208.189 22.9941 208.494 22.9096 208.684 22.7448C208.827 22.6138 208.924 22.4321 208.988 22.1913C209.039 21.9674 209.068 21.7181 209.068 21.4857C209.068 21.2364 209.03 21.0589 208.903 20.9237ZM208.515 21.6927C208.46 21.7814 208.354 21.8364 208.198 21.8533V21.9167C208.274 21.9167 208.35 21.9378 208.401 21.98C208.464 22.0223 208.506 22.0941 208.506 22.2167V22.28L208.489 22.58L208.451 22.6265H208.202L208.164 22.5969L208.181 22.3012V22.2124C208.181 22.1448 208.16 22.0983 208.126 22.073C208.071 22.0307 207.982 22.0096 207.872 22.0096L207.551 21.9927L207.479 22.5758L207.416 22.6265H207.201L207.154 22.58L207.34 21.0758L207.403 21.0209H208.113C208.286 21.0209 208.43 21.0547 208.51 21.1392C208.57 21.1941 208.603 21.2955 208.603 21.4054C208.603 21.4983 208.582 21.6082 208.523 21.6885L208.515 21.6927ZM208.198 21.3251C208.155 21.2955 208.075 21.2744 207.978 21.2744H207.632L207.564 21.7772L207.915 21.7688C208.075 21.7603 208.172 21.7392 208.219 21.6547C208.244 21.6082 208.257 21.5237 208.257 21.4688C208.257 21.3969 208.236 21.3462 208.194 21.3251H208.198Z"></path>
<path fill="#213478" d="M158.309 7.99472C158.237 7.18346 157.937 6.96796 157.515 6.84965C156.97 6.70177 154.16 6.11867 151.967 6.30036C148.844 6.52853 147.087 7.85529 146.647 10.3271C146.216 12.8074 144.67 21.5454 144.539 22.3229C144.399 23.1088 144.687 23.4088 145.232 23.4088H148.384C149.161 23.4088 149.474 22.9102 149.588 22.0947C149.694 21.4102 151.519 11.168 151.519 11.168C151.73 10.0736 152.03 9.56655 153.167 9.31726C154.447 9.12289 156.873 9.21585 157.443 9.26656C157.921 9.30458 158.39 9.06796 158.309 7.99472Z"></path>
<path fill="#213478" d="M169.528 6.51986C167.787 6.26211 165.171 6.13957 163.067 6.7945C159.585 7.91 158.309 10.479 157.561 15.5537C156.611 22.01 159.463 23.2945 162.382 23.6452C165.116 23.9748 167.918 23.7677 169.933 22.1917C172.675 20.0452 173.17 16.5044 173.474 14.2861C174.239 7.93535 171.97 6.96352 169.528 6.51563V6.51986ZM168.53 14.0114C167.939 18.0339 167.563 21.2579 164.647 21.2579C162.366 21.2579 161.884 20.1424 162.437 16.3522C163.063 11.9917 163.659 8.87338 166.511 8.87338C169.033 8.87338 169.202 9.36352 168.53 14.0114Z"></path>
<path fill="#213478" d="M130.937 7.70725C130.865 7.28049 130.59 7.04387 129.956 6.8326C128.051 6.22415 124.455 6.02556 122.114 6.7988C119.059 7.82979 117.361 9.71007 116.49 14.6537C115.552 20.5735 117.534 22.6904 120.192 23.4213C123.048 24.1692 126.965 23.4467 129.006 22.1706C129.88 21.596 129.576 19.9185 128.579 20.1763C126.923 20.5692 125.596 20.8016 123.893 20.5988C123.601 20.5692 123.166 20.4551 123.052 20.4256C120.897 19.9988 121.18 17.6833 121.734 14.5777C122.347 11.0326 123.555 9.43965 125.49 9.22415C126.627 9.10162 128.913 9.13965 129.813 9.25373C130.518 9.31711 130.848 9.05091 130.924 8.51429C130.97 8.18472 130.979 7.92697 130.941 7.71148L130.937 7.70725Z"></path>
<path fill="#213478" d="M98.5374 0.650316C98.4783 0.33764 98.2754 0.172852 97.8402 0.172852H94.836C94.0416 0.172852 93.8008 0.468626 93.6783 1.12778L89.943 22.4193C89.7994 23.2306 90.0233 23.4503 90.8177 23.4503H93.6487C94.46 23.4503 94.6459 23.1968 94.7684 22.47C94.7684 22.47 98.043 3.94609 98.4614 1.56722C98.5121 1.30102 98.5712 0.92919 98.5332 0.650316H98.5374Z"></path>
<path fill="#213478" d="M90.8221 1.58472C90.8221 1.21712 90.7587 0.900214 90.6108 0.663594C90.4587 0.414298 90.2094 0.24951 89.8418 0.203031C87.8644 -0.0885185 80.977 -0.0547157 78.6277 0.241059C75.632 0.714298 74.3221 1.71148 73.7094 5.23543L71.3686 18.6932C70.6883 22.2171 71.9855 23.2861 74.5841 23.658C77.0221 23.9073 83.977 23.8988 85.8911 23.5861C87.0911 23.3368 87.4207 21.7735 87.4925 20.9833C87.5137 20.7467 87.4672 20.5397 87.2263 20.5397C86.2334 20.6326 80.4362 20.7805 78.8939 20.6622C77.6686 20.5523 77.3897 19.8974 77.5883 18.3847L78.4883 13.3143H87.1376C87.501 13.3016 88.0165 13.158 88.1644 12.5875L88.3925 11.7002L88.4855 11.3326C88.5404 11.1171 88.5615 10.9143 88.5404 10.7453C88.4939 10.4833 88.3249 10.3101 87.9573 10.3101L79.0122 10.3227L79.8827 5.47627C80.2122 3.96359 80.9263 3.29599 82.1136 3.19035C83.808 3.07627 89.1531 3.1819 90.0953 3.26219C90.3362 3.26219 90.577 3.06782 90.6573 2.8143C90.7545 2.38331 90.8221 1.96078 90.8221 1.59317V1.58472Z"></path>
<path fill="#213478" d="M111.145 6.63813C109.379 6.20291 106.954 6.13108 104.845 6.79446C101.507 7.8339 99.9186 9.9508 99.0524 14.8522C98.1059 20.7043 100.227 22.6733 102.707 23.4212C105.703 24.317 110.554 23.4212 112.747 22.0142C113.114 21.748 113.199 21.4691 113.195 20.9198C113.174 20.3663 112.95 20.0536 112.459 20.1593C110.812 20.4973 108.276 20.5691 106.405 20.5691C103.924 20.5691 103.827 18.7945 104.064 15.7691H113.478C114.027 15.7691 114.593 15.11 114.868 13.7325C115.054 12.8071 115.066 12.2578 115.024 11.5057C114.847 9.05925 114.15 7.45362 111.145 6.62967V6.63813ZM110.397 12.3804C110.321 12.9888 109.966 13.1916 109.481 13.1916C108.889 13.1916 105.145 13.1832 104.397 13.1916C104.727 10.3015 105.361 8.81418 108.04 8.81418C109.54 8.81418 110.685 9.13531 110.397 12.3804Z"></path>
<path fill="#213478" d="M183.816 0.679894C183.812 0.633415 183.795 0.595387 183.782 0.557359C183.706 0.303838 183.495 0.172852 183.106 0.172852H180.119C179.32 0.172852 179.075 0.468626 178.961 1.12778L175.222 22.4193C175.074 23.2306 175.306 23.4503 176.096 23.4503H178.931C179.743 23.4503 179.933 23.1968 180.051 22.47L183.744 1.54609C183.765 1.44468 183.858 0.975669 183.816 0.679894Z"></path>
<path fill="#213478" d="M191.617 7.08624C191.545 6.79469 191.338 6.64258 190.92 6.64258H187.928C187.134 6.64258 186.88 6.93835 186.77 7.59328L184.189 22.4285C184.037 23.244 184.265 23.4595 185.059 23.4595H187.894C188.706 23.4595 188.887 23.1975 189.014 22.475C189.014 22.475 191.194 10.0905 191.549 8.05807C191.579 7.93554 191.592 7.85525 191.596 7.813C191.651 7.51723 191.663 7.27216 191.621 7.09047L191.617 7.08624Z"></path>
<path fill="#213478" d="M144.626 7.08209C144.592 6.76096 144.39 6.64265 144.047 6.64265H138.55C138.55 6.64265 139.108 3.53279 139.298 2.42998C139.34 2.19336 139.429 1.79195 139.345 1.52153C139.273 1.25955 139.078 1.12012 138.668 1.12012H135.592C134.815 1.12012 134.578 1.51307 134.473 2.16378C134.35 2.79336 131.891 17.1553 131.659 18.3722C131.435 19.5849 131.485 20.5145 132.018 21.4652C132.508 22.3483 133.357 22.8511 134.211 23.0539C135.381 23.3159 138.732 23.6032 140.536 23.4807C141.385 23.4469 141.576 23.3793 142.011 22.9483C142.547 22.3821 142.784 21.5201 142.784 20.8694C142.784 20.5652 142.712 20.43 142.298 20.4722C141.305 20.5187 139.159 20.4849 138.077 20.375C137.012 20.2694 136.345 19.7286 136.556 18.1483C136.771 16.9187 138.06 9.51589 138.06 9.51589H143.507C143.887 9.51589 144.246 9.34265 144.356 8.78068C144.407 8.50181 144.44 8.28209 144.483 8.07505C144.525 7.86378 144.63 7.33561 144.626 7.08631V7.08209Z"></path>
<path fill="#213478" d="M206.679 7.0902C206.646 6.76062 206.443 6.63809 206.109 6.63809H200.603C200.603 6.63809 201.165 3.54936 201.351 2.44231C201.377 2.31555 201.389 2.21837 201.402 2.15499C201.436 1.90992 201.448 1.71555 201.41 1.54654C201.351 1.26767 201.144 1.11133 200.722 1.11133H197.646C196.86 1.11133 196.623 1.50429 196.517 2.15499C196.403 2.78457 193.932 17.1465 193.708 18.3634C193.484 19.5761 193.534 20.5057 194.063 21.4564C194.565 22.3395 195.406 22.8423 196.26 23.0451C197.434 23.3071 200.785 23.5944 202.594 23.4719C203.434 23.4381 203.629 23.3705 204.06 22.9395C204.592 22.3733 204.837 21.5113 204.837 20.8606C204.837 20.5564 204.765 20.4212 204.347 20.4634C203.354 20.5099 201.203 20.4761 200.126 20.3663C199.061 20.2606 198.389 19.7198 198.605 18.1395C198.82 16.9099 200.105 9.5071 200.105 9.5071H205.556C205.94 9.5071 206.291 9.33386 206.396 8.77189C206.451 8.49724 206.489 8.28598 206.532 8.07471C206.565 7.86767 206.671 7.3395 206.671 7.08598L206.679 7.0902Z"></path>
<path fill="#213478" d="M56.5072 19.7238C56.3466 19.6816 56.3889 19.2886 56.3635 18.8914C55.9325 11.8647 47.3889 5.87312 31.1424 5.61115C23.9382 5.49706 23.8579 -0.10153 32.3593 0.0928363C44.5114 0.37171 57.6311 9.53227 56.803 19.014C56.7818 19.2379 56.71 19.7703 56.5072 19.7196V19.7238Z"></path>
<path fill="#213478" d="M65.0638 12.9333C64.9328 16.3685 62.2497 20.1586 58.0412 23.6699C57.6271 24.0079 57.4962 24.0291 57.4285 23.9699C57.3525 23.8981 57.399 23.7882 57.7074 23.3826C62.0595 17.6403 61.1807 13.3094 61.4553 11.8685C61.9497 9.27414 65.1947 9.51499 65.0638 12.9291V12.9333Z"></path>
<path fill="#213478" d="M55.0537 17.5651C54.8973 17.6919 54.6311 17.3919 54.5213 17.2567C48.648 10.2003 30.7621 9.01722 11.4565 19.2552C5.90858 22.1961 2.53675 22.4581 1.01562 20.8144C-0.505506 19.175 1.44661 16.42 5.61703 14.5398C21.8255 6.14398 47.9213 5.67497 54.8635 16.8891C54.9945 17.1003 55.1931 17.4468 55.0579 17.5609L55.0537 17.5651Z"></path>
<path fill="#213478" d="M57.9522 6.23248C60.7789 12.3297 59.5536 17.8902 58.1043 20.9747C57.8085 21.5494 57.6226 21.7395 57.5085 21.6761C57.4029 21.617 57.4409 21.3466 57.6691 20.7719C59.7437 15.4649 56.1648 9.67614 53.5282 7.19586C47.3212 1.3522 54.5634 -1.07738 57.9522 6.23248Z"></path>
</g>
<defs>
<clipPath id="clip0_2021_48639">
<rect transform="translate(0.5)" fill="white" height="24" width="208.88"></rect>
</clipPath>
</defs>
</svg>
